<svg width="1696" height="512" viewBox="0 0 1696 512" fill="none" xmlns="http://www.w3.org/2000/svg">
<path d="M738.12 227.5C743.947 218.887 752.18 211.54 762.82 205.46C773.713 199.38 786.507 196.34 801.2 196.34C817.92 196.34 832.487 200.393 844.9 208.5C857.567 216.353 867.447 227.627 874.54 242.32C881.887 257.013 885.56 274.24 885.56 294C885.56 313.76 881.887 330.987 874.54 345.68C867.447 360.12 857.567 371.393 844.9 379.5C832.233 387.607 817.667 391.66 801.2 391.66C788.027 391.66 776.373 389.127 766.24 384.06C756.107 378.74 748.253 372.533 742.68 365.44L739.64 389H695.56V115.4H744.2V228.26L738.12 227.5ZM833.12 294C833.12 278.04 828.94 265.247 820.58 255.62C812.473 245.74 801.833 240.8 788.66 240.8C780.553 240.8 773.08 242.953 766.24 247.26C759.653 251.313 754.333 257.267 750.28 265.12C746.227 272.973 744.2 282.6 744.2 294C744.2 305.4 746.227 315.027 750.28 322.88C754.333 330.733 759.653 336.813 766.24 341.12C773.08 345.173 780.553 347.2 788.66 347.2C801.833 347.2 812.473 342.387 820.58 332.76C828.94 322.88 833.12 309.96 833.12 294ZM1032.53 389L1028.73 365.82C1022.4 373.673 1015.18 379.88 1007.07 384.44C999.221 389 988.581 391.28 975.154 391.28C962.487 391.28 951.341 389.127 941.714 384.82C932.341 380.26 924.994 374.053 919.674 366.2C914.354 358.093 911.694 348.593 911.694 337.7C911.694 321.74 917.394 308.567 928.794 298.18C940.447 287.54 957.927 280.827 981.234 278.04L1028.73 272.72V259.42C1028.73 254.1 1026.33 249.16 1021.51 244.6C1016.7 240.04 1009.1 237.76 998.714 237.76C989.594 237.76 981.614 240.04 974.774 244.6C968.187 248.907 963.754 255.493 961.474 264.36L919.674 249.16C924.741 232.187 934.367 219.14 948.554 210.02C962.741 200.9 980.221 196.34 1000.99 196.34C1026.33 196.34 1045.33 202.673 1057.99 215.34C1070.91 227.753 1077.37 244.22 1077.37 264.74V389H1032.53ZM1028.73 306.54L987.694 311.86C979.334 312.873 973.001 315.407 968.694 319.46C964.387 323.26 962.234 327.947 962.234 333.52C962.234 338.84 964.387 343.4 968.694 347.2C973.001 350.747 979.081 352.52 986.934 352.52C995.801 352.52 1003.27 350.873 1009.35 347.58C1015.69 344.287 1020.5 339.473 1023.79 333.14C1027.09 326.807 1028.73 318.953 1028.73 309.58V306.54ZM1121.95 199H1166.03L1169.45 223.32C1174.77 216.733 1180.72 211.413 1187.31 207.36C1194.15 203.053 1201.62 200.14 1209.73 198.62C1217.83 196.847 1226.32 196.973 1235.19 199V244.6C1228.35 242.32 1221.13 241.687 1213.53 242.7C1206.18 243.713 1199.21 246.373 1192.63 250.68C1186.29 254.987 1180.97 261.193 1176.67 269.3C1172.61 277.153 1170.59 287.16 1170.59 299.32V389H1121.95V199ZM1266.3 199H1310.38L1313.8 223.32C1319.12 216.733 1325.08 211.413 1331.66 207.36C1338.5 203.053 1345.98 200.14 1354.08 198.62C1362.19 196.847 1370.68 196.973 1379.54 199V244.6C1372.7 242.32 1365.48 241.687 1357.88 242.7C1350.54 243.713 1343.57 246.373 1336.98 250.68C1330.65 254.987 1325.33 261.193 1321.02 269.3C1316.97 277.153 1314.94 287.16 1314.94 299.32V389H1266.3V199ZM1496.92 391.66C1477.92 391.66 1461.2 387.48 1446.76 379.12C1432.32 370.76 1421.04 359.107 1412.94 344.16C1405.08 329.213 1401.16 311.987 1401.16 292.48C1401.16 273.733 1405.08 257.14 1412.94 242.7C1420.79 228.26 1431.68 216.987 1445.62 208.88C1459.8 200.52 1475.89 196.34 1493.88 196.34C1512.12 196.34 1528.2 200.267 1542.14 208.12C1556.07 215.973 1566.84 226.993 1574.44 241.18C1582.29 255.113 1586.22 271.453 1586.22 290.2C1586.22 292.987 1585.96 296.153 1585.46 299.7C1585.2 302.993 1584.82 306.54 1584.32 310.34H1453.6C1454.61 318.447 1457.14 325.413 1461.2 331.24C1465.5 336.813 1470.7 341.247 1476.78 344.54C1483.11 347.58 1490.2 349.1 1498.06 349.1C1507.43 349.1 1515.79 347.2 1523.14 343.4C1530.74 339.347 1536.18 334.153 1539.48 327.82L1582.8 340.74C1575.2 356.953 1563.8 369.493 1548.6 378.36C1533.65 387.227 1516.42 391.66 1496.92 391.66ZM1533.02 275C1532.76 267.907 1530.86 261.573 1527.32 256C1523.77 250.173 1519.08 245.74 1513.26 242.7C1507.43 239.407 1500.97 237.76 1493.88 237.76C1487.54 237.76 1481.59 239.407 1476.02 242.7C1470.44 245.993 1465.63 250.427 1461.58 256C1457.78 261.32 1455.24 267.653 1453.98 275H1533.02ZM1623.29 115.4H1671.93V389H1623.29V115.4Z" fill="#251F2B"/>
<rect width="512" height="512" rx="128" fill="#C693F1"/>
<path d="M179.14 392.6C161.407 392.6 147.22 387.407 136.58 377.02C126.193 366.633 121 352.7 121 335.22C121 316.727 126.447 302.413 137.34 292.28C148.487 281.893 164.827 276.7 186.36 276.7H208.78V234.9H186.36C164.827 234.9 148.487 229.833 137.34 219.7C126.447 209.313 121 194.873 121 176.38C121 158.9 126.193 144.967 136.58 134.58C147.22 124.193 161.407 119 179.14 119C193.327 119 204.473 121.66 212.58 126.98C220.94 132.3 226.767 139.393 230.06 148.26C233.607 157.127 235.38 166.88 235.38 177.52V209.06H277.18V177.52C277.18 166.88 278.827 157.127 282.12 148.26C285.667 139.393 291.493 132.3 299.6 126.98C307.96 121.66 319.233 119 333.42 119C351.153 119 365.213 124.193 375.6 134.58C386.24 144.967 391.56 158.9 391.56 176.38C391.56 194.873 386.113 209.313 375.22 219.7C364.327 229.833 347.987 234.9 326.2 234.9H303.78V276.7H326.2C347.987 276.7 364.327 281.893 375.22 292.28C386.113 302.413 391.56 316.727 391.56 335.22C391.56 352.7 386.24 366.633 375.6 377.02C365.213 387.407 351.153 392.6 333.42 392.6C319.233 392.6 307.96 389.94 299.6 384.62C291.493 379.3 285.667 372.207 282.12 363.34C278.827 354.473 277.18 344.72 277.18 334.08V302.54H235.38V334.08C235.38 344.72 233.607 354.473 230.06 363.34C226.767 372.207 220.94 379.3 212.58 384.62C204.473 389.94 193.327 392.6 179.14 392.6ZM303.78 176.76V209.06H326.2C339.627 209.06 349.38 206.4 355.46 201.08C361.54 195.507 364.58 187.273 364.58 176.38C364.58 165.233 361.54 157.253 355.46 152.44C349.633 147.627 342.287 145.22 333.42 145.22C323.54 145.22 316.067 148.133 311 153.96C306.187 159.533 303.78 167.133 303.78 176.76ZM186.36 209.06H208.78V176.76C208.78 167.133 206.247 159.533 201.18 153.96C196.367 148.133 189.02 145.22 179.14 145.22C170.273 145.22 162.8 147.627 156.72 152.44C150.893 157.253 147.98 165.233 147.98 176.38C147.98 187.273 151.02 195.507 157.1 201.08C163.18 206.4 172.933 209.06 186.36 209.06ZM235.38 276.7H277.18V234.9H235.38V276.7ZM179.14 366.38C189.02 366.38 196.367 363.593 201.18 358.02C206.247 352.193 208.78 344.467 208.78 334.84V302.54H186.36C172.933 302.54 163.18 305.327 157.1 310.9C151.02 316.22 147.98 324.327 147.98 335.22C147.98 346.367 150.893 354.347 156.72 359.16C162.8 363.973 170.273 366.38 179.14 366.38ZM303.78 334.84C303.78 344.467 306.187 352.193 311 358.02C316.067 363.593 323.54 366.38 333.42 366.38C342.287 366.38 349.633 363.973 355.46 359.16C361.54 354.347 364.58 346.367 364.58 335.22C364.58 324.327 361.54 316.22 355.46 310.9C349.38 305.327 339.627 302.54 326.2 302.54H303.78V334.84Z" fill="#080E10" fill-opacity="0.75"/>
</svg>
