<svg width="512" height="512" viewBox="0 0 512 512" fill="none" xmlns="http://www.w3.org/2000/svg">
<rect width="512" height="512" rx="128" fill="#C693F1"/>
<path d="M179.14 392.6C161.407 392.6 147.22 387.407 136.58 377.02C126.193 366.633 121 352.7 121 335.22C121 316.727 126.447 302.413 137.34 292.28C148.487 281.893 164.827 276.7 186.36 276.7H208.78V234.9H186.36C164.827 234.9 148.487 229.833 137.34 219.7C126.447 209.313 121 194.873 121 176.38C121 158.9 126.193 144.967 136.58 134.58C147.22 124.193 161.407 119 179.14 119C193.327 119 204.473 121.66 212.58 126.98C220.94 132.3 226.767 139.393 230.06 148.26C233.607 157.127 235.38 166.88 235.38 177.52V209.06H277.18V177.52C277.18 166.88 278.827 157.127 282.12 148.26C285.667 139.393 291.493 132.3 299.6 126.98C307.96 121.66 319.233 119 333.42 119C351.153 119 365.213 124.193 375.6 134.58C386.24 144.967 391.56 158.9 391.56 176.38C391.56 194.873 386.113 209.313 375.22 219.7C364.327 229.833 347.987 234.9 326.2 234.9H303.78V276.7H326.2C347.987 276.7 364.327 281.893 375.22 292.28C386.113 302.413 391.56 316.727 391.56 335.22C391.56 352.7 386.24 366.633 375.6 377.02C365.213 387.407 351.153 392.6 333.42 392.6C319.233 392.6 307.96 389.94 299.6 384.62C291.493 379.3 285.667 372.207 282.12 363.34C278.827 354.473 277.18 344.72 277.18 334.08V302.54H235.38V334.08C235.38 344.72 233.607 354.473 230.06 363.34C226.767 372.207 220.94 379.3 212.58 384.62C204.473 389.94 193.327 392.6 179.14 392.6ZM303.78 176.76V209.06H326.2C339.627 209.06 349.38 206.4 355.46 201.08C361.54 195.507 364.58 187.273 364.58 176.38C364.58 165.233 361.54 157.253 355.46 152.44C349.633 147.627 342.287 145.22 333.42 145.22C323.54 145.22 316.067 148.133 311 153.96C306.187 159.533 303.78 167.133 303.78 176.76ZM186.36 209.06H208.78V176.76C208.78 167.133 206.247 159.533 201.18 153.96C196.367 148.133 189.02 145.22 179.14 145.22C170.273 145.22 162.8 147.627 156.72 152.44C150.893 157.253 147.98 165.233 147.98 176.38C147.98 187.273 151.02 195.507 157.1 201.08C163.18 206.4 172.933 209.06 186.36 209.06ZM235.38 276.7H277.18V234.9H235.38V276.7ZM179.14 366.38C189.02 366.38 196.367 363.593 201.18 358.02C206.247 352.193 208.78 344.467 208.78 334.84V302.54H186.36C172.933 302.54 163.18 305.327 157.1 310.9C151.02 316.22 147.98 324.327 147.98 335.22C147.98 346.367 150.893 354.347 156.72 359.16C162.8 363.973 170.273 366.38 179.14 366.38ZM303.78 334.84C303.78 344.467 306.187 352.193 311 358.02C316.067 363.593 323.54 366.38 333.42 366.38C342.287 366.38 349.633 363.973 355.46 359.16C361.54 354.347 364.58 346.367 364.58 335.22C364.58 324.327 361.54 316.22 355.46 310.9C349.38 305.327 339.627 302.54 326.2 302.54H303.78V334.84Z" fill="#080E10" fill-opacity="0.75"/>
</svg>
