<svg width="1696" height="512" viewBox="0 0 1696 512" fill="none" xmlns="http://www.w3.org/2000/svg">
<path d="M738.12 228.5C743.947 219.887 752.18 212.54 762.82 206.46C773.713 200.38 786.507 197.34 801.2 197.34C817.92 197.34 832.487 201.393 844.9 209.5C857.567 217.353 867.447 228.627 874.54 243.32C881.887 258.013 885.56 275.24 885.56 295C885.56 314.76 881.887 331.987 874.54 346.68C867.447 361.12 857.567 372.393 844.9 380.5C832.233 388.607 817.667 392.66 801.2 392.66C788.027 392.66 776.373 390.127 766.24 385.06C756.107 379.74 748.253 373.533 742.68 366.44L739.64 390H695.56V116.4H744.2V229.26L738.12 228.5ZM833.12 295C833.12 279.04 828.94 266.247 820.58 256.62C812.473 246.74 801.833 241.8 788.66 241.8C780.553 241.8 773.08 243.953 766.24 248.26C759.653 252.313 754.333 258.267 750.28 266.12C746.227 273.973 744.2 283.6 744.2 295C744.2 306.4 746.227 316.027 750.28 323.88C754.333 331.733 759.653 337.813 766.24 342.12C773.08 346.173 780.553 348.2 788.66 348.2C801.833 348.2 812.473 343.387 820.58 333.76C828.94 323.88 833.12 310.96 833.12 295ZM1032.53 390L1028.73 366.82C1022.4 374.673 1015.18 380.88 1007.07 385.44C999.221 390 988.581 392.28 975.154 392.28C962.487 392.28 951.341 390.127 941.714 385.82C932.341 381.26 924.994 375.053 919.674 367.2C914.354 359.093 911.694 349.593 911.694 338.7C911.694 322.74 917.394 309.567 928.794 299.18C940.447 288.54 957.927 281.827 981.234 279.04L1028.73 273.72V260.42C1028.73 255.1 1026.33 250.16 1021.51 245.6C1016.7 241.04 1009.1 238.76 998.714 238.76C989.594 238.76 981.614 241.04 974.774 245.6C968.187 249.907 963.754 256.493 961.474 265.36L919.674 250.16C924.741 233.187 934.367 220.14 948.554 211.02C962.741 201.9 980.221 197.34 1000.99 197.34C1026.33 197.34 1045.33 203.673 1057.99 216.34C1070.91 228.753 1077.37 245.22 1077.37 265.74V390H1032.53ZM1028.73 307.54L987.694 312.86C979.334 313.873 973.001 316.407 968.694 320.46C964.387 324.26 962.234 328.947 962.234 334.52C962.234 339.84 964.387 344.4 968.694 348.2C973.001 351.747 979.081 353.52 986.934 353.52C995.801 353.52 1003.27 351.873 1009.35 348.58C1015.69 345.287 1020.5 340.473 1023.79 334.14C1027.09 327.807 1028.73 319.953 1028.73 310.58V307.54ZM1121.95 200H1166.03L1169.45 224.32C1174.77 217.733 1180.72 212.413 1187.31 208.36C1194.15 204.053 1201.62 201.14 1209.73 199.62C1217.83 197.847 1226.32 197.973 1235.19 200V245.6C1228.35 243.32 1221.13 242.687 1213.53 243.7C1206.18 244.713 1199.21 247.373 1192.63 251.68C1186.29 255.987 1180.97 262.193 1176.67 270.3C1172.61 278.153 1170.59 288.16 1170.59 300.32V390H1121.95V200ZM1266.3 200H1310.38L1313.8 224.32C1319.12 217.733 1325.08 212.413 1331.66 208.36C1338.5 204.053 1345.98 201.14 1354.08 199.62C1362.19 197.847 1370.68 197.973 1379.54 200V245.6C1372.7 243.32 1365.48 242.687 1357.88 243.7C1350.54 244.713 1343.57 247.373 1336.98 251.68C1330.65 255.987 1325.33 262.193 1321.02 270.3C1316.97 278.153 1314.94 288.16 1314.94 300.32V390H1266.3V200ZM1496.92 392.66C1477.92 392.66 1461.2 388.48 1446.76 380.12C1432.32 371.76 1421.04 360.107 1412.94 345.16C1405.08 330.213 1401.16 312.987 1401.16 293.48C1401.16 274.733 1405.08 258.14 1412.94 243.7C1420.79 229.26 1431.68 217.987 1445.62 209.88C1459.8 201.52 1475.89 197.34 1493.88 197.34C1512.12 197.34 1528.2 201.267 1542.14 209.12C1556.07 216.973 1566.84 227.993 1574.44 242.18C1582.29 256.113 1586.22 272.453 1586.22 291.2C1586.22 293.987 1585.96 297.153 1585.46 300.7C1585.2 303.993 1584.82 307.54 1584.32 311.34H1453.6C1454.61 319.447 1457.14 326.413 1461.2 332.24C1465.5 337.813 1470.7 342.247 1476.78 345.54C1483.11 348.58 1490.2 350.1 1498.06 350.1C1507.43 350.1 1515.79 348.2 1523.14 344.4C1530.74 340.347 1536.18 335.153 1539.48 328.82L1582.8 341.74C1575.2 357.953 1563.8 370.493 1548.6 379.36C1533.65 388.227 1516.42 392.66 1496.92 392.66ZM1533.02 276C1532.76 268.907 1530.86 262.573 1527.32 257C1523.77 251.173 1519.08 246.74 1513.26 243.7C1507.43 240.407 1500.97 238.76 1493.88 238.76C1487.54 238.76 1481.59 240.407 1476.02 243.7C1470.44 246.993 1465.63 251.427 1461.58 257C1457.78 262.32 1455.24 268.653 1453.98 276H1533.02ZM1623.29 116.4H1671.93V390H1623.29V116.4Z" fill="white"/>
<rect width="512" height="512" rx="128" fill="#C693F1"/>
<path d="M179.14 392.6C161.407 392.6 147.22 387.407 136.58 377.02C126.193 366.633 121 352.7 121 335.22C121 316.727 126.447 302.413 137.34 292.28C148.487 281.893 164.827 276.7 186.36 276.7H208.78V234.9H186.36C164.827 234.9 148.487 229.833 137.34 219.7C126.447 209.313 121 194.873 121 176.38C121 158.9 126.193 144.967 136.58 134.58C147.22 124.193 161.407 119 179.14 119C193.327 119 204.473 121.66 212.58 126.98C220.94 132.3 226.767 139.393 230.06 148.26C233.607 157.127 235.38 166.88 235.38 177.52V209.06H277.18V177.52C277.18 166.88 278.827 157.127 282.12 148.26C285.667 139.393 291.493 132.3 299.6 126.98C307.96 121.66 319.233 119 333.42 119C351.153 119 365.213 124.193 375.6 134.58C386.24 144.967 391.56 158.9 391.56 176.38C391.56 194.873 386.113 209.313 375.22 219.7C364.327 229.833 347.987 234.9 326.2 234.9H303.78V276.7H326.2C347.987 276.7 364.327 281.893 375.22 292.28C386.113 302.413 391.56 316.727 391.56 335.22C391.56 352.7 386.24 366.633 375.6 377.02C365.213 387.407 351.153 392.6 333.42 392.6C319.233 392.6 307.96 389.94 299.6 384.62C291.493 379.3 285.667 372.207 282.12 363.34C278.827 354.473 277.18 344.72 277.18 334.08V302.54H235.38V334.08C235.38 344.72 233.607 354.473 230.06 363.34C226.767 372.207 220.94 379.3 212.58 384.62C204.473 389.94 193.327 392.6 179.14 392.6ZM303.78 176.76V209.06H326.2C339.627 209.06 349.38 206.4 355.46 201.08C361.54 195.507 364.58 187.273 364.58 176.38C364.58 165.233 361.54 157.253 355.46 152.44C349.633 147.627 342.287 145.22 333.42 145.22C323.54 145.22 316.067 148.133 311 153.96C306.187 159.533 303.78 167.133 303.78 176.76ZM186.36 209.06H208.78V176.76C208.78 167.133 206.247 159.533 201.18 153.96C196.367 148.133 189.02 145.22 179.14 145.22C170.273 145.22 162.8 147.627 156.72 152.44C150.893 157.253 147.98 165.233 147.98 176.38C147.98 187.273 151.02 195.507 157.1 201.08C163.18 206.4 172.933 209.06 186.36 209.06ZM235.38 276.7H277.18V234.9H235.38V276.7ZM179.14 366.38C189.02 366.38 196.367 363.593 201.18 358.02C206.247 352.193 208.78 344.467 208.78 334.84V302.54H186.36C172.933 302.54 163.18 305.327 157.1 310.9C151.02 316.22 147.98 324.327 147.98 335.22C147.98 346.367 150.893 354.347 156.72 359.16C162.8 363.973 170.273 366.38 179.14 366.38ZM303.78 334.84C303.78 344.467 306.187 352.193 311 358.02C316.067 363.593 323.54 366.38 333.42 366.38C342.287 366.38 349.633 363.973 355.46 359.16C361.54 354.347 364.58 346.367 364.58 335.22C364.58 324.327 361.54 316.22 355.46 310.9C349.38 305.327 339.627 302.54 326.2 302.54H303.78V334.84Z" fill="#080E10" fill-opacity="0.75"/>
</svg>
