<svg width="977" height="277" viewBox="0 0 977 277" fill="none" xmlns="http://www.w3.org/2000/svg">
<path d="M42.5599 112.1C48.3866 103.487 56.6199 96.1401 67.2599 90.0601C78.1533 83.9801 90.9466 80.9401 105.64 80.9401C122.36 80.9401 136.927 84.9934 149.34 93.1001C162.007 100.953 171.887 112.227 178.98 126.92C186.327 141.613 190 158.84 190 178.6C190 198.36 186.327 215.587 178.98 230.28C171.887 244.72 162.007 255.993 149.34 264.1C136.673 272.207 122.107 276.26 105.64 276.26C92.4666 276.26 80.8133 273.727 70.6799 268.66C60.5466 263.34 52.6933 257.133 47.1199 250.04L44.0799 273.6H-5.75632e-05V8.67844e-05H48.6399V112.86L42.5599 112.1ZM137.56 178.6C137.56 162.64 133.38 149.847 125.02 140.22C116.913 130.34 106.273 125.4 93.0999 125.4C84.9933 125.4 77.5199 127.553 70.6799 131.86C64.0933 135.913 58.7733 141.867 54.7199 149.72C50.6666 157.573 48.6399 167.2 48.6399 178.6C48.6399 190 50.6666 199.627 54.7199 207.48C58.7733 215.333 64.0933 221.413 70.6799 225.72C77.5199 229.773 84.9933 231.8 93.0999 231.8C106.273 231.8 116.913 226.987 125.02 217.36C133.38 207.48 137.56 194.56 137.56 178.6ZM336.974 273.6L333.174 250.42C326.841 258.273 319.621 264.48 311.514 269.04C303.661 273.6 293.021 275.88 279.594 275.88C266.927 275.88 255.781 273.727 246.154 269.42C236.781 264.86 229.434 258.653 224.114 250.8C218.794 242.693 216.134 233.193 216.134 222.3C216.134 206.34 221.834 193.167 233.234 182.78C244.887 172.14 262.367 165.427 285.674 162.64L333.174 157.32V144.02C333.174 138.7 330.767 133.76 325.954 129.2C321.141 124.64 313.541 122.36 303.154 122.36C294.034 122.36 286.054 124.64 279.214 129.2C272.627 133.507 268.194 140.093 265.914 148.96L224.114 133.76C229.181 116.787 238.807 103.74 252.994 94.6201C267.181 85.5001 284.661 80.9401 305.434 80.9401C330.767 80.9401 349.767 87.2734 362.434 99.9401C375.354 112.353 381.814 128.82 381.814 149.34V273.6H336.974ZM333.174 191.14L292.134 196.46C283.774 197.473 277.441 200.007 273.134 204.06C268.827 207.86 266.674 212.547 266.674 218.12C266.674 223.44 268.827 228 273.134 231.8C277.441 235.347 283.521 237.12 291.374 237.12C300.241 237.12 307.714 235.473 313.794 232.18C320.127 228.887 324.941 224.073 328.234 217.74C331.527 211.407 333.174 203.553 333.174 194.18V191.14ZM426.387 83.6001H470.467L473.887 107.92C479.207 101.333 485.16 96.0134 491.747 91.9601C498.587 87.6534 506.06 84.7401 514.167 83.2201C522.273 81.4468 530.76 81.5734 539.627 83.6001V129.2C532.787 126.92 525.567 126.287 517.967 127.3C510.62 128.313 503.653 130.973 497.067 135.28C490.733 139.587 485.413 145.793 481.107 153.9C477.053 161.753 475.027 171.76 475.027 183.92V273.6H426.387V83.6001ZM570.742 83.6001H614.822L618.242 107.92C623.562 101.333 629.515 96.0134 636.102 91.9601C642.942 87.6534 650.415 84.7401 658.522 83.2201C666.629 81.4468 675.115 81.5734 683.982 83.6001V129.2C677.142 126.92 669.922 126.287 662.322 127.3C654.975 128.313 648.009 130.973 641.422 135.28C635.089 139.587 629.769 145.793 625.462 153.9C621.409 161.753 619.382 171.76 619.382 183.92V273.6H570.742V83.6001ZM801.358 276.26C782.358 276.26 765.638 272.08 751.198 263.72C736.758 255.36 725.484 243.707 717.378 228.76C709.524 213.813 705.598 196.587 705.598 177.08C705.598 158.333 709.524 141.74 717.378 127.3C725.231 112.86 736.124 101.587 750.058 93.4801C764.244 85.1201 780.331 80.9401 798.318 80.9401C816.558 80.9401 832.644 84.8668 846.578 92.7201C860.511 100.573 871.278 111.593 878.878 125.78C886.731 139.713 890.658 156.053 890.658 174.8C890.658 177.587 890.404 180.753 889.898 184.3C889.644 187.593 889.264 191.14 888.758 194.94H758.038C759.051 203.047 761.584 210.013 765.638 215.84C769.944 221.413 775.138 225.847 781.218 229.14C787.551 232.18 794.644 233.7 802.498 233.7C811.871 233.7 820.231 231.8 827.578 228C835.178 223.947 840.624 218.753 843.918 212.42L887.238 225.34C879.638 241.553 868.238 254.093 853.038 262.96C838.091 271.827 820.864 276.26 801.358 276.26ZM837.458 159.6C837.204 152.507 835.304 146.173 831.758 140.6C828.211 134.773 823.524 130.34 817.698 127.3C811.871 124.007 805.411 122.36 798.318 122.36C791.984 122.36 786.031 124.007 780.458 127.3C774.884 130.593 770.071 135.027 766.018 140.6C762.218 145.92 759.684 152.253 758.418 159.6H837.458ZM927.734 8.67844e-05H976.374V273.6H927.734V8.67844e-05Z" fill="#251F2B"/>
</svg>
